<svg viewBox="0 0 22 22" fill="#8AE3D9" xmlns="http://www.w3.org/2000/svg">
  <path d="M8.95346 13.0465V9.97673C8.95346 9.83552 9.06807 9.72092 9.20928 9.72092H10.2325C10.3737 9.72092 10.4883 9.83552 10.4883 9.97673V13.0465C10.4883 13.4701 10.8322 13.8139 11.2558 13.8139C11.6794 13.8139 12.0232 13.4701 12.0232 13.0465V9.97673C12.0232 8.98827 11.222 8.18604 10.2325 8.18604H9.20928C8.21979 8.18604 7.41858 8.98827 7.41858 9.97673V13.0465C7.41858 13.4701 7.76239 13.8139 8.18602 13.8139C8.60965 13.8139 8.95346 13.4701 8.95346 13.0465Z" />
  <path d="M13.0465 8.95348V13.0465C13.0465 13.4701 13.3903 13.8139 13.814 13.8139C14.2376 13.8139 14.5814 13.4701 14.5814 13.0465V8.95348C14.5814 8.52985 14.2376 8.18604 13.814 8.18604C13.3903 8.18604 13.0465 8.52985 13.0465 8.95348Z" />
  <path d="M17.907 6.90722C17.907 5.35289 16.6473 4.09326 15.093 4.09326H6.90697C5.35265 4.09326 4.09302 5.35289 4.09302 6.90722V15.0933C4.09302 16.6476 5.35265 17.9072 6.90697 17.9072H15.093C16.6473 17.9072 17.907 16.6476 17.907 15.0933V6.90722ZM16.3721 6.90722V15.0933C16.3721 15.7993 15.7991 16.3723 15.093 16.3723H6.90697C6.20092 16.3723 5.6279 15.7993 5.6279 15.0933V6.90722C5.6279 6.20117 6.20092 5.62815 6.90697 5.62815H15.093C15.7991 5.62815 16.3721 6.20117 16.3721 6.90722Z" />
  <path d="M11.2558 10.7441H8.18602C7.76239 10.7441 7.41858 11.088 7.41858 11.5116C7.41858 11.9352 7.76239 12.279 8.18602 12.279H11.2558C11.6794 12.279 12.0232 11.9352 12.0232 11.5116C12.0232 11.088 11.6794 10.7441 11.2558 10.7441Z" />
  <path d="M17.1395 11.7673H21.2325C21.6562 11.7673 22 11.4235 22 10.9999C22 10.5762 21.6562 10.2324 21.2325 10.2324H17.1395C16.7159 10.2324 16.3721 10.5762 16.3721 10.9999C16.3721 11.4235 16.7159 11.7673 17.1395 11.7673Z"/>
  <path d="M11.7674 4.86047V0.767442C11.7674 0.343814 11.4236 0 11 0C10.5764 0 10.2325 0.343814 10.2325 0.767442V4.86047C10.2325 5.28409 10.5764 5.62791 11 5.62791C11.4236 5.62791 11.7674 5.28409 11.7674 4.86047Z" />
  <path d="M10.2325 17.1395V21.2325C10.2325 21.6562 10.5764 22 11 22C11.4236 22 11.7674 21.6562 11.7674 21.2325V17.1395C11.7674 16.7159 11.4236 16.3721 11 16.3721C10.5764 16.3721 10.2325 16.7159 10.2325 17.1395Z" />
  <path d="M4.86047 10.2324H0.767442C0.343814 10.2324 0 10.5762 0 10.9999C0 11.4235 0.343814 11.7673 0.767442 11.7673H4.86047C5.28409 11.7673 5.62791 11.4235 5.62791 10.9999C5.62791 10.5762 5.28409 10.2324 4.86047 10.2324Z" />
  <path d="M17.1395 8.69748H19.6977C20.1213 8.69748 20.4651 8.35367 20.4651 7.93004C20.4651 7.50641 20.1213 7.1626 19.6977 7.1626H17.1395C16.7159 7.1626 16.3721 7.50641 16.3721 7.93004C16.3721 8.35367 16.7159 8.69748 17.1395 8.69748Z" />
  <path d="M8.69773 4.86025V2.30211C8.69773 1.87848 8.35391 1.53467 7.93028 1.53467C7.50666 1.53467 7.16284 1.87848 7.16284 2.30211V4.86025C7.16284 5.28388 7.50666 5.62769 7.93028 5.62769C8.35391 5.62769 8.69773 5.28388 8.69773 4.86025Z" />
  <path d="M7.16284 17.1395V19.6977C7.16284 20.1213 7.50666 20.4651 7.93028 20.4651C8.35391 20.4651 8.69773 20.1213 8.69773 19.6977V17.1395C8.69773 16.7159 8.35391 16.3721 7.93028 16.3721C7.50666 16.3721 7.16284 16.7159 7.16284 17.1395Z" />
  <path d="M4.86049 7.1626H2.30235C1.87873 7.1626 1.53491 7.50641 1.53491 7.93004C1.53491 8.35367 1.87873 8.69748 2.30235 8.69748H4.86049C5.28412 8.69748 5.62794 8.35367 5.62794 7.93004C5.62794 7.50641 5.28412 7.1626 4.86049 7.1626Z"/>
  <path d="M17.1395 14.8371H19.6977C20.1213 14.8371 20.4651 14.4933 20.4651 14.0697C20.4651 13.6461 20.1213 13.3022 19.6977 13.3022H17.1395C16.7159 13.3022 16.3721 13.6461 16.3721 14.0697C16.3721 14.4933 16.7159 14.8371 17.1395 14.8371Z" />
  <path d="M14.8373 4.86025V2.30211C14.8373 1.87848 14.4934 1.53467 14.0698 1.53467C13.6462 1.53467 13.3024 1.87848 13.3024 2.30211V4.86025C13.3024 5.28388 13.6462 5.62769 14.0698 5.62769C14.4934 5.62769 14.8373 5.28388 14.8373 4.86025Z" />
  <path d="M13.3024 17.1395V19.6977C13.3024 20.1213 13.6462 20.4651 14.0698 20.4651C14.4934 20.4651 14.8373 20.1213 14.8373 19.6977V17.1395C14.8373 16.7159 14.4934 16.3721 14.0698 16.3721C13.6462 16.3721 13.3024 16.7159 13.3024 17.1395Z" />
  <path d="M4.86049 13.3022H2.30235C1.87873 13.3022 1.53491 13.6461 1.53491 14.0697C1.53491 14.4933 1.87873 14.8371 2.30235 14.8371H4.86049C5.28412 14.8371 5.62794 14.4933 5.62794 14.0697C5.62794 13.6461 5.28412 13.3022 4.86049 13.3022Z" />
</svg>