<svg viewBox="0 0 22 22" fill="#8AE3D9" xmlns="http://www.w3.org/2000/svg">
  <path d="M16.1367 8.36064C15.9271 8.2485 15.6728 8.26079 15.475 8.39261L12.3349 10.4861V8.92891C12.3349 8.6912 12.2041 8.47279 11.9945 8.36064C11.785 8.2485 11.5307 8.26079 11.3329 8.39261L8.16128 10.507L7.50094 0.601648C7.47838 0.263098 7.19715 0 6.85782 0H2.02526C1.68593 0 1.40474 0.263098 1.38214 0.601648L0.00142748 21.3126C-0.0104319 21.4906 0.0520017 21.6655 0.173861 21.7958C0.295763 21.9261 0.466178 22 0.644541 22H15.8326C16.1885 22 16.4771 21.7114 16.4771 21.3555V8.92891C16.4771 8.6912 16.3463 8.47279 16.1367 8.36064ZM2.35212 5.43125H6.531L6.62914 6.90366H2.25398L2.35212 5.43125ZM2.62828 1.28906H6.25484L6.44507 4.14219H2.43806L2.62828 1.28906ZM2.16804 8.19272H6.71508L7.54962 20.7109H1.33346L2.16804 8.19272ZM15.188 20.7109H8.84156L8.26019 11.9903L11.0459 10.1332V11.6904C11.0459 11.9281 11.1767 12.1465 11.3863 12.2586C11.5958 12.3708 11.8501 12.3585 12.0479 12.2267L15.188 10.1332V20.7109Z" />
  <path d="M15.8326 0C14.9795 0.0315391 14.9778 1.25692 15.8326 1.28906C18.5226 1.28906 20.711 3.4775 20.711 6.16743C20.711 6.52339 20.9996 6.81197 21.3555 6.81197C21.7115 6.81197 22.0001 6.52339 22.0001 6.16743C22.0001 2.76672 19.2333 0 15.8326 0Z" />
  <path d="M15.8326 2.76123C14.979 2.79286 14.9783 4.0185 15.8326 4.05029C16.9999 4.05029 17.9495 4.99995 17.9495 6.16723C17.9495 6.52319 18.2381 6.81177 18.594 6.81177C18.95 6.81177 19.2386 6.52319 19.2386 6.16723C19.2386 4.28916 17.7106 2.76123 15.8326 2.76123Z" />
  <path d="M16.4771 6.16748C16.4771 5.81174 16.1883 5.52295 15.8325 5.52295C14.9786 5.55492 14.9788 6.78017 15.8325 6.81201C16.1882 6.81201 16.4771 6.52322 16.4771 6.16748Z" />
</svg>