<svg viewBox="0 0 22 22" fill="#8AE3D9" xmlns="http://www.w3.org/2000/svg">
  <path d="M11.0042 12.292H11.043C13.0956 12.292 15.0212 10.9265 15.9488 8.81316C16.1395 8.37853 15.9418 7.87158 15.5072 7.68084C15.0725 7.48998 14.5657 7.68776 14.3749 8.12235C13.7315 9.58827 12.3925 10.5732 11.043 10.5732H11.0042C9.068 10.5732 7.30469 8.59685 7.30469 6.42676V3.45246L11.0236 1.78536L14.0653 3.14889L12.0571 5.95848C11.9848 6.03987 11.8957 6.05761 11.8477 6.06079C11.7975 6.06402 11.7001 6.05766 11.6147 5.97623C11.6106 5.97232 11.6065 5.96841 11.6022 5.96459L9.95195 4.45256C9.60197 4.13193 9.05837 4.15573 8.73778 4.50567C8.41715 4.85561 8.44091 5.3992 8.79085 5.71984L10.4357 7.22684C10.8123 7.58245 11.3131 7.78014 11.8282 7.78014C11.8727 7.78014 11.9173 7.77864 11.9619 7.77568C12.5266 7.73808 13.0538 7.46316 13.4082 7.02145C13.4182 7.00903 13.4278 6.99631 13.4371 6.98337L17.1173 1.8346C17.3934 1.44848 17.3041 0.911719 16.9179 0.635731C16.5318 0.359742 15.995 0.448988 15.7191 0.835148L15.0849 1.72237L11.4168 0.078125C11.3063 0.0285391 11.1865 0.00292969 11.0653 0.00292969H10.9818C10.8607 0.00292969 10.7409 0.0285391 10.6303 0.078125L6.09379 2.11175C5.7848 2.25024 5.58594 2.55729 5.58594 2.89593V6.4268C5.58594 7.86015 6.1508 9.32363 7.13565 10.4418C8.18645 11.635 9.56029 12.292 11.0042 12.292Z" />
  <path d="M18.5625 3.09668C18.0879 3.09668 17.7031 3.48142 17.7031 3.95605C17.7031 4.43069 18.0879 4.81543 18.5625 4.81543C19.5102 4.81543 20.2812 5.58646 20.2812 6.53418V10.8311C20.2812 11.3057 20.666 11.6904 21.1406 11.6904C21.6153 11.6904 22 11.3057 22 10.8311V6.53418C22 4.63874 20.4579 3.09668 18.5625 3.09668Z" />
  <path d="M21.1406 14.2686C20.666 14.2686 20.2812 14.6533 20.2812 15.1279C20.2812 16.0756 19.5102 16.8467 18.5625 16.8467H3.4375C2.48978 16.8467 1.71875 16.0756 1.71875 15.1279V6.53418C1.71875 5.6467 2.38335 4.91147 3.26459 4.82398C3.73691 4.7771 4.08177 4.35618 4.03489 3.88391C3.98802 3.41164 3.56688 3.06703 3.09478 3.11361C2.25006 3.19748 1.46906 3.59039 0.895598 4.22001C0.318055 4.8541 0 5.67597 0 6.53418V15.1279C0 17.0234 1.54206 18.5654 3.4375 18.5654H10.1406V20.2789H7.13281C6.65818 20.2789 6.27344 20.6637 6.27344 21.1383C6.27344 21.6129 6.65818 21.9977 7.13281 21.9977H14.8672C15.3418 21.9977 15.7266 21.6129 15.7266 21.1383C15.7266 20.6637 15.3418 20.2789 14.8672 20.2789H11.8594V18.5654H18.5625C20.4579 18.5654 22 17.0234 22 15.1279C22 14.6533 21.6153 14.2686 21.1406 14.2686Z" />
</svg>
