<svg viewBox="0 0 22 22" fill="#8AE3D9" xmlns="http://www.w3.org/2000/svg">
  <path d="M21.016 15.209H20.0034V13.9743C19.9375 13.9894 19.8738 14.0137 19.8043 14.0137C19.5609 14.0137 19.3324 13.9185 19.1641 13.7481L18.5367 13.1207V15.209H3.46398V5.16005H18.5367V8.22374L19.8702 8.647C19.9181 8.66273 19.9597 8.68713 20.0034 8.71001V4.42671C20.0034 4.02129 19.6754 3.69336 19.2701 3.69336H2.73063C2.32531 3.69336 1.99733 4.02129 1.99733 4.42671V15.209H0.984023C0.44047 15.209 0 15.6494 0 16.193V17.3231C0 17.8666 0.44047 18.3071 0.984023 18.3071H21.016C21.5596 18.3071 22 17.8666 22 17.3231V16.193C22 15.6494 21.5596 15.209 21.016 15.209ZM14.8858 17.1247H7.1149C6.91228 17.1247 6.74822 16.9607 6.74822 16.758C6.74822 16.5553 6.91233 16.3914 7.1149 16.3914H14.8858C15.0885 16.3914 15.2525 16.5553 15.2525 16.758C15.2525 16.9607 15.0885 17.1247 14.8858 17.1247Z" />
  <path d="M19.7141 9.63071C19.7563 9.58842 19.7735 9.52689 19.7592 9.46817C19.7449 9.40946 19.7012 9.36288 19.6439 9.3442L15.95 8.17264C15.9328 8.16692 15.9149 8.16406 15.8977 8.16406C15.8526 8.16406 15.8089 8.18196 15.776 8.21489C15.7301 8.26069 15.7136 8.32803 15.7337 8.38886L16.9053 12.0835C16.9239 12.1407 16.9704 12.1845 17.0292 12.1988C17.0428 12.2023 17.0564 12.2038 17.07 12.2038C17.1151 12.2038 17.1595 12.1858 17.1918 12.1529L17.8986 11.4461L19.6825 13.2293C19.7162 13.2637 19.7599 13.2802 19.8043 13.2802C19.8487 13.2802 19.8924 13.2637 19.9261 13.2293L20.7897 12.3656C20.8578 12.2983 20.8578 12.1894 20.7897 12.1221L19.0066 10.3382L19.7141 9.63071Z" />
</svg>