<svg viewBox="0 0 22 22" fill="#8AE3D9" xmlns="http://www.w3.org/2000/svg">
  <path d="M18.7807 5.37151L11.8065 0.742344C11.8674 0.498701 11.776 0.255059 11.5628 0.102777C11.2888 -0.0799443 10.8928 -0.0190228 10.7101 0.285498L8.12145 4.18374C7.93873 4.45782 7.99965 4.85374 8.30417 5.03646C8.39553 5.09738 8.76102 5.21918 9.00462 5.00602L15.9789 9.60475C17.6539 10.6098 19.0548 9.60475 19.5116 8.87382C20.3035 7.74701 19.9684 6.13288 18.7807 5.37151ZM9.70507 4.0315L11.1669 1.80827L14.6084 4.06194L10.8928 4.8233L9.70507 4.0315ZM18.5066 8.2343C18.263 8.59974 17.5625 9.14795 16.6488 8.59974L12.3242 5.73695L16.0397 4.97558L18.1106 6.34608C18.7198 6.80288 18.9025 7.62517 18.5066 8.2343Z" />
  <path d="M14.4865 10.4575C14.1819 10.2748 13.8165 10.3966 13.6642 10.6707C13.6642 10.6707 12.6287 12.5285 12.6287 12.6198V17.7668H4.19266V16.579H5.04539C5.38039 16.579 5.65447 16.305 5.65447 15.97C5.65447 15.6349 5.38039 15.3609 5.04539 15.3609H4.22314V14.6604H6.47681C6.81181 14.6604 7.08589 14.3863 7.08589 14.0513C7.08589 13.7163 6.81181 13.4423 6.47681 13.4423H4.22314V12.6504C4.22314 12.5286 3.18765 10.7013 3.18765 10.7013C3.00493 10.3967 2.63945 10.3053 2.36536 10.4881C2.0608 10.6708 1.96944 11.0363 2.15216 11.3103L3.03537 12.8331V19.6551C3.03537 20.9342 4.07086 22.0001 5.38039 22.0001H11.5628C12.8419 22.0001 13.9078 20.9646 13.9078 19.6551V12.8025L14.791 11.2797C14.8824 10.9752 14.791 10.6098 14.4865 10.4575ZM11.5019 20.7209H5.31951C4.71043 20.7209 4.19266 20.2336 4.19266 19.594V18.9849H12.5983V19.594C12.6287 20.2336 12.111 20.7209 11.5019 20.7209Z" />
  <path d="M8.97411 7.86864C8.85231 7.71636 8.66955 7.625 8.48683 7.625C8.3041 7.625 8.12138 7.71636 7.99954 7.86864C7.6341 8.32549 6.47681 9.90914 6.47681 10.8228C6.50725 11.9496 7.39046 12.8328 8.48683 12.8328C9.5832 12.8328 10.4968 11.9496 10.4968 10.8228C10.4969 9.90914 9.3396 8.35593 8.97411 7.86864ZM8.48683 11.6146C8.06046 11.6146 7.69498 11.2796 7.69498 10.8228C7.72542 10.6096 8.06042 9.97007 8.48683 9.30006C8.94367 9.97007 9.27867 10.6096 9.27867 10.8228C9.27867 11.2492 8.94367 11.6146 8.48683 11.6146Z" />
</svg>