<svg viewBox="0 0 22 22" fill="#99E7DE" xmlns="http://www.w3.org/2000/svg">
  <path d="M11.5507 18.6943H11.0007V17.0442C11.001 16.7405 10.7549 16.4943 10.4513 16.4941C10.4516 16.4941 10.4511 16.4941 10.4513 16.4941H1.6501C1.34647 16.494 1.10024 16.7399 1.10007 17.0435V18.6943H0.550034C0.246231 18.6943 8.58772e-08 18.9405 8.58772e-08 19.2443V21.4444C-0.000167761 21.7479 0.245728 21.9941 0.549362 21.9945H11.5504C11.854 21.9946 12.1002 21.7486 12.1004 21.4449C12.1004 21.4451 12.1004 21.4448 12.1004 21.4449V19.2443C12.1004 18.9407 11.8543 18.6944 11.5507 18.6943ZM2.20047 17.5942H9.9006V18.6943H2.20047V17.5942ZM11.0007 20.8944H1.10007V19.7943H11.0003L11.0007 20.8944Z" />
  <path d="M21.5171 15.7121L14.1278 8.32251L14.9056 7.54471L15.2945 7.93361C15.5094 8.14845 15.8575 8.14845 16.0723 7.93361L17.6283 6.37801C17.8431 6.1635 17.8433 5.81538 17.6286 5.60054L12.1835 0.154587C11.9653 -0.0515289 11.6239 -0.0515289 11.4057 0.154587L9.84974 1.7112C9.6349 1.92604 9.6349 2.27415 9.84974 2.489L10.2385 2.87773L6.34913 6.76674L5.96023 6.37784C5.74203 6.17155 5.40063 6.17155 5.18243 6.37784L3.62683 7.93344C3.41215 8.14812 3.41215 8.4964 3.62683 8.71124L9.07211 14.1567C9.28679 14.3714 9.63507 14.3714 9.84974 14.1567L11.4053 12.6011C11.62 12.3864 11.62 12.0381 11.4053 11.8233L11.0159 11.4341L11.7946 10.6556L19.184 18.0455C19.8281 18.6899 20.8724 18.6901 21.5168 18.046C21.5166 18.0462 21.5169 18.0459 21.5168 18.046L21.5179 18.0455C22.161 17.4003 22.1606 16.3567 21.5171 15.7121ZM11.7946 1.32129L16.4617 5.98894L15.6834 6.76657L11.0163 2.09993L11.7946 1.32129ZM9.46084 12.9898L4.79353 8.32251L5.57133 7.54471L10.2385 12.2124L9.46084 12.9898ZM10.2385 10.6556L7.12693 7.54437L11.0163 3.6557L14.1278 6.76691L10.2385 10.6556ZM20.7395 17.2676C20.5224 17.4762 20.1787 17.4762 19.9617 17.2676L12.5724 9.87778L13.35 9.09998L20.7395 16.4898C20.9536 16.7048 20.9536 17.0526 20.7395 17.2676Z" />
</svg>
