<svg viewBox="0 0 22 22" fill="#8AE3D9" xmlns="http://www.w3.org/2000/svg">
  <path d="M18.0898 7.13281C18.0898 6.06659 17.2225 5.19922 16.1562 5.19922C15.09 5.19922 14.2227 6.06659 14.2227 7.13281V10.3555H12.9336V4.55469C12.9336 3.48846 12.0662 2.62109 11 2.62109C9.93377 2.62109 9.06641 3.48846 9.06641 4.55469V10.3555H7.77734V7.13281C7.77734 6.06659 6.90998 5.19922 5.84375 5.19922C4.77752 5.19922 3.91016 6.06659 3.91016 7.13281V10.3555H0V11.6445H1.33203V14.8672C1.33203 15.9334 2.1994 16.8008 3.26562 16.8008C4.33185 16.8008 5.19922 15.9334 5.19922 14.8672V11.6445H6.48828V17.4453C6.48828 18.5115 7.35565 19.3789 8.42188 19.3789C9.4881 19.3789 10.3555 18.5115 10.3555 17.4453V11.6445H11.6445V17.4453C11.6445 18.5115 12.5119 19.3789 13.5781 19.3789C14.6444 19.3789 15.5117 18.5115 15.5117 17.4453V11.6445H16.8008V14.8672C16.8008 15.9334 17.6681 16.8008 18.7344 16.8008C19.8006 16.8008 20.668 15.9334 20.668 14.8672V11.6445H22V10.3555H18.0898V7.13281ZM3.91016 14.8672C3.91016 15.2228 3.62123 15.5117 3.26562 15.5117C2.91002 15.5117 2.62109 15.2228 2.62109 14.8672V11.6445H3.91016V14.8672ZM6.48828 10.3555H5.19922V7.13281C5.19922 6.7772 5.48814 6.48828 5.84375 6.48828C6.19936 6.48828 6.48828 6.7772 6.48828 7.13281V10.3555ZM9.06641 17.4453C9.06641 17.8009 8.77748 18.0898 8.42188 18.0898C8.06627 18.0898 7.77734 17.8009 7.77734 17.4453V11.6445H9.06641V17.4453ZM11.6445 10.3555H10.3555V4.55469C10.3555 4.19908 10.6444 3.91016 11 3.91016C11.3556 3.91016 11.6445 4.19908 11.6445 4.55469V10.3555ZM14.2227 17.4453C14.2227 17.8009 13.9337 18.0898 13.5781 18.0898C13.2225 18.0898 12.9336 17.8009 12.9336 17.4453V11.6445H14.2227V17.4453ZM16.8008 10.3555H15.5117V7.13281C15.5117 6.7772 15.8006 6.48828 16.1562 6.48828C16.5119 6.48828 16.8008 6.7772 16.8008 7.13281V10.3555ZM19.3789 11.6445V14.8672C19.3789 15.2228 19.09 15.5117 18.7344 15.5117C18.3788 15.5117 18.0898 15.2228 18.0898 14.8672V11.6445H19.3789Z" />
</svg>